<svg width="30" height="29" viewBox="0 0 30 29" fill="none" xmlns="http://www.w3.org/2000/svg">
<path d="M0 2C0 0.895431 0.895431 0 2 0H18C19.1046 0 20 0.895431 20 2V17.7068C20 18.4938 19.5384 19.2077 18.8207 19.5307L2.82073 26.7307C1.49725 27.3262 0 26.3581 0 24.9068V2Z" fill="url(#paint0_linear_1280_91419)"/>
<circle cx="20" cy="18.9729" r="10" fill="url(#paint1_linear_1280_91419)"/>
<path d="M20 17.6799C19.9999 18.4669 19.538 19.1802 18.8203 19.5032L10.8809 23.0754C10.3167 21.8233 10 20.4354 10 18.9729C10 13.4501 14.4772 8.9729 20 8.9729V17.6799Z" fill="url(#paint2_linear_1280_91419)"/>
<defs>
<linearGradient id="paint0_linear_1280_91419" x1="6.02523" y1="6.719" x2="6" y2="35.1248" gradientUnits="userSpaceOnUse">
<stop stop-color="#625BF4"/>
<stop offset="1" stop-color="#39358E"/>
</linearGradient>
<linearGradient id="paint1_linear_1280_91419" x1="20" y1="8.9729" x2="20" y2="28.9729" gradientUnits="userSpaceOnUse">
<stop stop-color="#F9C668"/>
<stop offset="1" stop-color="#EBA31E"/>
</linearGradient>
<linearGradient id="paint2_linear_1280_91419" x1="10.5696" y1="10.5105" x2="16.6612" y2="20.2694" gradientUnits="userSpaceOnUse">
<stop stop-color="#FFD381"/>
<stop offset="1" stop-color="#D9900B"/>
</linearGradient>
</defs>
</svg>
