<svg width="30" height="30" viewBox="0 0 30 30" fill="none" xmlns="http://www.w3.org/2000/svg">
<path d="M-6.10352e-05 17.6396C-6.10352e-05 16.6862 0.672858 15.8654 1.60771 15.6784L27.6077 10.4784C28.8453 10.2309 29.9999 11.1775 29.9999 12.4396V28C29.9999 29.1046 29.1045 30 27.9999 30H1.99994C0.895369 30 -6.10352e-05 29.1046 -6.10352e-05 28V17.6396Z" fill="url(#paint0_linear_1280_91445)"/>
<rect x="5.99994" width="18" height="23" rx="2" fill="url(#paint1_linear_1280_91445)"/>
<path d="M23.9999 21C23.9999 22.1046 23.1045 23 21.9999 23H7.99994C6.89537 23 5.99994 22.1046 5.99994 21V14.7998L23.9999 11.2002V21Z" fill="url(#paint2_linear_1280_91445)"/>
<defs>
<linearGradient id="paint0_linear_1280_91445" x1="14.9999" y1="10" x2="14.9999" y2="30" gradientUnits="userSpaceOnUse">
<stop stop-color="#F9C668"/>
<stop offset="1" stop-color="#FBBB46"/>
</linearGradient>
<linearGradient id="paint1_linear_1280_91445" x1="14.9999" y1="25.5267" x2="16.2586" y2="-2.35547" gradientUnits="userSpaceOnUse">
<stop stop-color="#F58665"/>
<stop offset="1" stop-color="#E16541"/>
</linearGradient>
<linearGradient id="paint2_linear_1280_91445" x1="16.6797" y1="8.07898" x2="19.1025" y2="20.1579" gradientUnits="userSpaceOnUse">
<stop stop-color="#F9C668"/>
<stop offset="1" stop-color="#E8A830"/>
</linearGradient>
</defs>
</svg>
