<svg width="148" height="147" viewBox="0 0 148 147" fill="none" xmlns="http://www.w3.org/2000/svg">
<path d="M74.3701 2.1875C83.0305 7.49056 94.8346 9.87097 105.997 10.7334C116.563 11.5497 126.737 11.0171 133.5 10.2041V73.1797C133.5 73.5285 133.478 73.8789 133.435 74.2217L133.384 74.5605C125.694 118.885 91.5483 140.153 75.0107 145.422C32.1723 131.159 17.4864 91.8587 15.5 73.9111V10.5186C25.0984 13.1431 36.6141 12.3826 47.168 10.373C58.0583 8.29947 68.1219 4.85582 74.3701 2.1875Z" fill="url(#paint0_linear_1476_119231)" stroke="#4E6EF5" stroke-width="3"/>
<path d="M74.373 21.6826C80.9454 25.6062 89.8156 27.3583 98.1602 27.9961C105.919 28.5891 113.397 28.2291 118.5 27.6494V73.8564C118.5 74.2097 118.478 74.5631 118.434 74.9072L118.381 75.2471C112.575 107.798 87.2527 123.48 74.8877 127.424C42.9506 116.846 31.9893 87.8423 30.5 74.5947V27.9463C37.7015 29.7734 46.2252 29.1904 54.0117 27.7236C62.1313 26.1941 69.6412 23.6666 74.373 21.6826Z" fill="url(#paint1_linear_1476_119231)" stroke="#4E6EF5" stroke-width="3"/>
<rect x="44" y="47" width="60" height="40" rx="4" fill="#375DFB"/>
<path d="M46 64H102V81C102 82.6569 100.657 84 99 84H49C47.3431 84 46 82.6569 46 81V64Z" fill="#DEF4FC"/>
<path d="M64.5 64H102V81C102 82.6569 100.657 84 99 84H96.3838C95.8068 84 95.2422 83.8337 94.7574 83.5209L64.5 64Z" fill="#AFD8F9"/>
<circle cx="12" cy="64" r="12" fill="#375DFB"/>
<circle cx="12" cy="64" r="10" fill="#E9F6FF"/>
<circle cx="12" cy="64" r="12" fill="#E9F6FF"/>
<path d="M12 52C18.6274 52 24 57.3726 24 64C24 70.6274 18.6274 76 12 76C5.37258 76 0 70.6274 0 64C0 57.3726 5.37258 52 12 52Z" fill="#4E6EF5"/>
<path d="M136 52C142.627 52 148 57.3726 148 64C148 70.6274 142.627 76 136 76C129.373 76 124 70.6274 124 64C124 57.3726 129.373 52 136 52Z" fill="#375DFB"/>
<circle cx="12" cy="64" r="10" fill="#E9F6FF"/>
<circle cx="136" cy="64" r="10" fill="#E9F6FF"/>
<circle cx="74" cy="22.1739" r="12.5" fill="#6C6BF6" stroke="white"/>
<path d="M71.7969 17.7526C71.2038 17.1736 70.2541 17.1856 69.6757 17.7781C69.0973 18.3706 69.1082 19.3203 69.7013 19.8993C70.2938 20.4777 71.2441 20.4662 71.8225 19.8737C72.4008 19.2812 72.3894 18.3309 71.7969 17.7526Z" fill="white"/>
<path d="M78.2373 24.0393C77.6442 23.4603 76.6945 23.4724 76.1162 24.0649C75.5378 24.6574 75.5486 25.607 76.1417 26.186C76.7342 26.7644 77.6845 26.753 78.2629 26.1605C78.8413 25.568 78.8298 24.6177 78.2373 24.0393Z" fill="white"/>
<path d="M69.5862 25.0276C69.2004 25.4228 69.2081 26.0559 69.6033 26.4417C69.9985 26.8275 70.6316 26.8198 71.0174 26.4246L78.352 18.9111C78.7378 18.5158 78.7301 17.8827 78.3349 17.4969C77.9397 17.1112 77.3066 17.1188 76.9208 17.514L69.5862 25.0276Z" fill="white"/>
<path fill-rule="evenodd" clip-rule="evenodd" d="M12.6655 66.9537V64.8564C13.2395 64.8624 13.7042 65.3284 13.7042 65.9017C13.7042 66.4784 13.2395 66.9477 12.6655 66.9537ZM10.2962 62.4017C10.2962 61.8157 10.7542 61.3397 11.3322 61.2964V63.5137C10.7549 63.4704 10.2962 62.991 10.2962 62.4017ZM15.0375 65.9017C15.0375 64.593 13.9742 63.529 12.6655 63.523V61.2884H12.8922C13.3395 61.2884 13.7035 61.6504 13.7035 62.095V62.181C13.7035 62.5497 14.0022 62.8477 14.3702 62.8477C14.7382 62.8477 15.0369 62.5497 15.0369 62.181V62.095C15.0369 60.915 14.0749 59.955 12.8922 59.955H12.6655V59.375C12.6655 59.0064 12.3669 58.7084 11.9989 58.7084C11.6309 58.7084 11.3322 59.0064 11.3322 59.375V59.963C10.0189 60.0077 8.96289 61.0804 8.96289 62.4024C8.96356 63.7264 10.0202 64.8024 11.3322 64.847V66.955H11.1082C10.6609 66.955 10.2976 66.5904 10.2976 66.1417C10.2976 65.773 9.99889 65.475 9.63089 65.475C9.26289 65.475 8.96422 65.773 8.96422 66.1417C8.96422 67.325 9.92622 68.2884 11.1082 68.2884H11.3322V68.7084C11.3322 69.0764 11.6309 69.375 11.9989 69.375C12.3669 69.375 12.6655 69.0764 12.6655 68.7084V68.287C13.9742 68.281 15.0375 67.2137 15.0375 65.9017Z" fill="#0E0D14"/>
<path fill-rule="evenodd" clip-rule="evenodd" d="M136.665 65.9537V63.8564C137.239 63.8624 137.704 64.3284 137.704 64.9017C137.704 65.4784 137.239 65.9477 136.665 65.9537ZM134.296 61.4017C134.296 60.8157 134.754 60.3397 135.332 60.2964V62.5137C134.754 62.4704 134.296 61.991 134.296 61.4017ZM139.037 64.9017C139.037 63.593 137.974 62.529 136.665 62.523V60.2884H136.892C137.339 60.2884 137.703 60.6504 137.703 61.095V61.181C137.703 61.5497 138.002 61.8477 138.37 61.8477C138.738 61.8477 139.036 61.5497 139.036 61.181V61.095C139.036 59.915 138.074 58.955 136.892 58.955H136.665V58.375C136.665 58.0064 136.366 57.7084 135.998 57.7084C135.63 57.7084 135.332 58.0064 135.332 58.375V58.963C134.018 59.0077 132.962 60.0804 132.962 61.4024C132.963 62.7264 134.02 63.8024 135.332 63.847V65.955H135.108C134.66 65.955 134.297 65.5904 134.297 65.1417C134.297 64.773 133.998 64.475 133.63 64.475C133.262 64.475 132.964 64.773 132.964 65.1417C132.964 66.325 133.926 67.2884 135.108 67.2884H135.332V67.7084C135.332 68.0764 135.63 68.375 135.998 68.375C136.366 68.375 136.665 68.0764 136.665 67.7084V67.287C137.974 67.281 139.037 66.2137 139.037 64.9017Z" fill="#0E0D14"/>
<path d="M102 54L46 54L46 51C46 49.3431 47.3431 48 49 48L99 48C100.657 48 102 49.3432 102 51L102 54Z" fill="#DEF4FC"/>
<rect x="51" y="68" width="11" height="2" rx="1" fill="#375DFB"/>
<rect x="51" y="72" width="11" height="2" rx="1" fill="#375DFB"/>
<rect x="51" y="76" width="7" height="2" rx="1" fill="#375DFB"/>
<circle cx="95" cy="69" r="1" fill="#375DFB"/>
<line x1="67" y1="96.5" x2="81" y2="96.5" stroke="#C8DFF5"/>
<line x1="67" y1="100.5" x2="77" y2="100.5" stroke="#C8DFF5"/>
<line x1="67" y1="108.5" x2="77" y2="108.5" stroke="#C8DFF5"/>
<line x1="67" y1="104.5" x2="81" y2="104.5" stroke="#C8DFF5"/>
<defs>
<linearGradient id="paint0_linear_1476_119231" x1="14" y1="73.75" x2="135" y2="73.75" gradientUnits="userSpaceOnUse">
<stop offset="0.503842" stop-color="#96ABFD"/>
<stop offset="0.504584" stop-color="#6E8BFC"/>
</linearGradient>
<linearGradient id="paint1_linear_1476_119231" x1="29" y1="74.5" x2="120" y2="74.5" gradientUnits="userSpaceOnUse">
<stop offset="0.503842" stop-color="#FDFDFE"/>
<stop offset="0.504584" stop-color="#EDF0FF"/>
</linearGradient>
</defs>
</svg>
