<svg width="156" height="157" viewBox="0 0 156 157" fill="none" xmlns="http://www.w3.org/2000/svg">
<path d="M77 104L44.5 77L58.5 81C67.7 84.6 72.3333 79.8333 73.5 77C77.9 69.4 72.3333 63.8333 69 62L55 53.5L100 0L137.5 31.5L77 104Z" fill="#1521F2"/>
<path d="M107.5 140C111.1 140 114.667 144.333 116 146.5L151.5 142.5C148.7 131.7 142.333 119.333 139.5 114.5C133.9 106.9 126.167 105.333 123 105.5H87C84.3867 105.5 83.022 108.113 82.5806 109.681C82.5213 109.892 82.5 110.11 82.5 110.329V113C82.5 115.539 84.9661 117.173 86.5445 117.829C86.8422 117.952 87.1644 118 87.4868 118H103.787C103.929 118 104.074 118.009 104.213 118.035C107.437 118.624 105.958 121.5 104 121.5H77C71.8 121.1 67.8333 118.333 66.5 117L48.5 105C45.7 103.8 43.3333 104.5 42.5 105L39 109C38.2 111 39 113.167 39.5 114L57 130C60.8938 135.451 69.8415 138.818 74.1574 139.915C74.386 139.973 74.6192 140 74.855 140H107.5Z" fill="#F9C668"/>
<path d="M9.5 29H0L3.5 71H9.5V29Z" fill="#F9C668"/>
<path d="M14.5 64.5V33C18.9 33.4001 26 30.8334 29 29.5C41.4 24.7 51.1667 25.5 54.5 26.5L69 29.5L54.5 47.5H49.0042C48.6733 47.5 48.3447 47.5796 48.0602 47.7487C43.4389 50.4965 45.7206 53.706 47.5 55L68.0196 66.4529C68.6608 66.8107 69.2035 67.3382 69.5282 67.9968C73.4919 76.037 66.8138 77.7114 62.45 77.5262C62.1505 77.5135 61.8554 77.4555 61.5689 77.3674L42.5 71.5C35.3 69.5 31.5 65.3334 30.5 63.5C28.5 60.7 24.3333 61.6667 22.5 62.5L14.5 64.5Z" fill="#F9C668"/>
<path d="M114 157V151L156 147V157H114Z" fill="#F9C668"/>
<path fill-rule="evenodd" clip-rule="evenodd" d="M89.914 58.3744H89.8125V59.1444C89.8125 59.8689 89.2245 60.4569 88.5 60.4569C87.7755 60.4569 87.1875 59.8689 87.1875 59.1444V58.3744H85.3202C84.5957 58.3744 84.0077 57.7864 84.0077 57.0619C84.0077 56.3374 84.5957 55.7494 85.3202 55.7494H89.914C90.5545 55.7494 91.076 55.2314 91.076 54.5944C91.076 53.9574 90.5545 53.4394 89.914 53.4394H87.0877C84.9983 53.4394 83.3008 51.7349 83.3008 49.6419C83.3008 47.5559 84.9983 45.8619 87.0877 45.8619H87.1875V45.0919C87.1875 44.3674 87.7755 43.7794 88.5 43.7794C89.2245 43.7794 89.8125 44.3674 89.8125 45.0919V45.8619H91.6815C92.406 45.8619 92.994 46.4499 92.994 47.1744C92.994 47.8989 92.406 48.4869 91.6815 48.4869H87.0877C86.4472 48.4869 85.9258 49.0049 85.9258 49.6419C85.9258 50.2876 86.4472 50.8144 87.0877 50.8144H89.914C92.0017 50.8144 93.701 52.5084 93.701 54.5944C93.701 56.6786 92.0017 58.3744 89.914 58.3744ZM88.5 35.4844C79.3335 35.4844 71.875 42.9429 71.875 52.1094C71.875 61.2759 79.3335 68.7344 88.5 68.7344C97.6665 68.7344 105.125 61.2759 105.125 52.1094C105.125 42.9429 97.6665 35.4844 88.5 35.4844Z" fill="white"/>
</svg>
