<svg width="18" height="871" viewBox="0 0 18 871" fill="none" xmlns="http://www.w3.org/2000/svg">
<g clip-path="url(#clip0_1476_119020)">
<rect x="9.75" width="154" height="1.5" transform="rotate(90 9.75 0)" fill="#E9E9F5"/>
<circle cx="9" cy="172.5" r="8" transform="rotate(90 9 172.5)" stroke="#DCE0E8"/>
<circle cx="9" cy="172.5" r="7" transform="rotate(90 9 172.5)" stroke="#D7EBFD"/>
<rect x="9.75" y="191" width="200" height="1.5" transform="rotate(90 9.75 191)" fill="#EDEDF6"/>
<circle cx="9" cy="409.5" r="8" transform="rotate(90 9 409.5)" stroke="#DCE0E8"/>
<circle cx="9" cy="409.5" r="7" transform="rotate(90 9 409.5)" stroke="#D7EBFD"/>
<rect x="9.75" y="428" width="200" height="1.5" transform="rotate(90 9.75 428)" fill="#EDEDF6"/>
<circle cx="9" cy="646.5" r="8" transform="rotate(90 9 646.5)" stroke="#DCE0E8"/>
<circle cx="9" cy="646.5" r="7" transform="rotate(90 9 646.5)" stroke="#D7EBFD"/>
<rect x="9.75" y="665" width="200" height="1.5" transform="rotate(90 9.75 665)" fill="#EDEDF6"/>
</g>
<defs>
<clipPath id="clip0_1476_119020">
<rect width="871" height="17" fill="white" transform="translate(17.5) rotate(90)"/>
</clipPath>
</defs>
</svg>
