<svg width="63" height="63" viewBox="0 0 63 63" fill="none" xmlns="http://www.w3.org/2000/svg">
<circle cx="31.5" cy="31.5" r="31" fill="url(#paint0_radial_1407_63492)" stroke="#E3E3F5"/>
<path d="M37.25 29.75C37.25 30.8375 36.9275 31.835 36.3725 32.6675C35.5625 33.8675 34.28 34.715 32.7875 34.9325C32.5325 34.9775 32.27 35 32 35C31.73 35 31.4675 34.9775 31.2125 34.9325C29.72 34.715 28.4375 33.8675 27.6275 32.6675C27.0725 31.835 26.75 30.8375 26.75 29.75C26.75 26.8475 29.0975 24.5 32 24.5C34.9025 24.5 37.25 26.8475 37.25 29.75Z" stroke="#121212" stroke-width="1.5" stroke-linecap="round" stroke-linejoin="round"/>
<path d="M38.9375 36.8523L37.7 37.1448C37.4225 37.2123 37.205 37.4223 37.145 37.6998L36.8825 38.8023C36.74 39.4023 35.975 39.5823 35.5775 39.1098L32 34.9998L28.4225 39.1173C28.025 39.5898 27.26 39.4098 27.1175 38.8098L26.855 37.7073C26.7875 37.4298 26.57 37.2123 26.3 37.1523L25.0625 36.8598C24.4925 36.7248 24.29 36.0123 24.7025 35.5998L27.6275 32.6748C28.4375 33.8748 29.72 34.7223 31.2125 34.9398C31.4675 34.9848 31.73 35.0073 32 35.0073C32.27 35.0073 32.5325 34.9848 32.7875 34.9398C34.28 34.7223 35.5625 33.8748 36.3725 32.6748L39.2975 35.5998C39.71 36.0048 39.5075 36.7173 38.9375 36.8523Z" stroke="#121212" stroke-width="1.5" stroke-linecap="round" stroke-linejoin="round"/>
<path d="M32.435 27.485L32.8775 28.37C32.9375 28.49 33.095 28.61 33.2375 28.6325L34.04 28.7675C34.55 28.85 34.67 29.225 34.3025 29.5925L33.68 30.215C33.575 30.32 33.515 30.5225 33.5525 30.6725L33.7325 31.445C33.875 32.0525 33.5525 32.2925 33.0125 31.97L32.2625 31.5275C32.1275 31.445 31.9025 31.445 31.7675 31.5275L31.0175 31.97C30.4775 32.285 30.155 32.0525 30.2975 31.445L30.4775 30.6725C30.5075 30.53 30.455 30.32 30.35 30.215L29.7275 29.5925C29.36 29.225 29.48 28.8575 29.99 28.7675L30.7925 28.6325C30.9275 28.61 31.085 28.49 31.145 28.37L31.5875 27.485C31.805 27.005 32.195 27.005 32.435 27.485Z" stroke="#121212" stroke-width="1.5" stroke-linecap="round" stroke-linejoin="round"/>
<defs>
<radialGradient id="paint0_radial_1407_63492" cx="0" cy="0" r="1" gradientUnits="userSpaceOnUse" gradientTransform="translate(31.5 31.5) rotate(90) scale(31.5)">
<stop stop-color="#EDEFFD"/>
<stop offset="1" stop-color="#E5E5F3"/>
</radialGradient>
</defs>
</svg>
