<svg width="42" height="42" viewBox="0 0 42 42" fill="none" xmlns="http://www.w3.org/2000/svg">
<circle cx="21" cy="21" r="21" fill="#625BF4"/>
<path d="M28.5 16.5V18.315C28.5 19.5 27.75 20.25 26.565 20.25H24V15.0075C24 14.175 24.6825 13.5 25.515 13.5C26.3325 13.5075 27.0825 13.8375 27.6225 14.3775C28.1625 14.925 28.5 15.675 28.5 16.5Z" stroke="white" stroke-width="1.5" stroke-miterlimit="10" stroke-linecap="round" stroke-linejoin="round"/>
<path d="M13.5 17.25V27.75C13.5 28.3725 14.205 28.725 14.7 28.35L15.9825 27.39C16.2825 27.165 16.7025 27.195 16.9725 27.465L18.2175 28.7175C18.51 29.01 18.99 29.01 19.2825 28.7175L20.5425 27.4575C20.805 27.195 21.225 27.165 21.5175 27.39L22.8 28.35C23.295 28.7175 24 28.365 24 27.75V15C24 14.175 24.675 13.5 25.5 13.5H17.25H16.5C14.25 13.5 13.5 14.8425 13.5 16.5V17.25Z" stroke="white" stroke-width="1.5" stroke-miterlimit="10" stroke-linecap="round" stroke-linejoin="round"/>
<path d="M18.75 21.7578H21" stroke="white" stroke-width="1.5" stroke-linecap="round" stroke-linejoin="round"/>
<path d="M18.75 18.7578H21" stroke="white" stroke-width="1.5" stroke-linecap="round" stroke-linejoin="round"/>
<path d="M16.4967 21.75H16.5034" stroke="white" stroke-width="2" stroke-linecap="round" stroke-linejoin="round"/>
<path d="M16.4967 18.75H16.5034" stroke="white" stroke-width="2" stroke-linecap="round" stroke-linejoin="round"/>
</svg>
